<svg xmlns="http://www.w3.org/2000/svg" fill="none" viewBox="0 0 100 100"><path fill="#1F305F" fill-rule="evenodd" d="M97.811 17c-1.535.052-1.09.743-4.414 1.564-3.357.827-7.416.32-11.026 1.839-9.447 3.958-10.977 19.264-22.228 25.185-7.377 4.167-14.9 5.123-21.626 7.231-5.398 2.165-8.755 3.599-12.713 7.012-3.07 2.648-3.818 5.218-7.029 8.541-3.256 4.425-15.598.495-18.775 6.045 1.676 1.085 2.643 1.383 5.584.995-.608 1.153-4.476 2.671-3.773 4.37 0 0 9.35 1.703 17.234-3.054 3.677-1.496 7.124-4.662 12.837-5.42 7.4-.985 15.739 1.551 24.685 2.265-1.85 3.655-3.756 5.815-5.797 8.828-.63.68.54 1.282 2.71.872 3.902-.967 6.73-2.013 9.536-3.953 3.66-2.525 5.235-4.836 8.322-8.496 2.683 4.301 12.14 5.246 14.08 1.53-3.61-1.53-4.38-9.487-3.143-12.922 1.462-3.273 2.513-7.9 3.694-12.202 1.063-3.874 1.72-9.784 2.992-12.81 1.518-3.761 4.47-4.936 6.685-6.932 2.216-1.996 4.42-3.66 4.353-8.227-.023-1.484-.788-2.305-2.188-2.26" clip-rule="evenodd"/><path fill="#C0765A" d="M2.823 78.994c5.797.174 7.371.022 11.954-1.968 3.897-1.693 9.109-6.253 13.714-7.726 6.759-2.17 14.007-1.844 21.199-.995 2.406.286 4.824.685 6.55.5 2.694-1.653 2.823-6.14 4.493-6.5-.455 8.682-4.178 14.237-7.9 19.275 7.844-1.383 13.085-6.28 16.256-12.342.962-1.839 2.558-4.847 3.29-6.916.578 1.372-.754 2.243-.13 3.739 5.05-4.167 7.434-8.912 9.48-15.862 2.373-8.041 4.808-14.952 6.337-17.33 1.49-2.323 3.813-3.756 5.933-5.24 2.406-1.693 4.56-3.453 4.93-6.675-2.54-.236-3.126-.821-3.502-2.103-1.271.714-2.44.871-3.762.91-1.147.034-2.407-.016-3.947.141-12.725 1.305-13.315 13.743-22.565 22.874a28 28 0 0 1-2.289 1.94c-2.856 2.131-5.915 3.3-9.137 4.532-5.218 1.99-10.166 2.57-15.058 4.29-3.593 1.26-6.933 2.705-9.885 4.724-.737.506-1.738 1.406-2.379 1.929-1.732 1.417-2.868 2.985-3.97 4.605-1.136 1.664-2.226 3.38-3.896 5.015-2.705 2.654-12.804.776-16.363 3.24-.394.275-.714.601-.928.995 1.94.882 3.239.343 5.471.584.276 2.132-4.622 3.391-3.897 4.364"/><path fill="#1F305F" fill-rule="evenodd" d="M83.478 25.166c1.8 1.563 5.578.309 4.904-2.8-2.8-.237-4.42.713-4.904 2.8" clip-rule="evenodd"/><path fill="#1F305F" d="M96.034 21.528c-.478 1.006-1.394 2.3-1.394 4.858-.006.438-.332.742-.338.062.023-2.503.686-3.582 1.39-5 .32-.578.517-.342.342.08"/><path fill="#1F305F" d="M95.55 21.15c-.567.957-1.928 2.705-2.147 5.258-.04.439-.4.709-.343.034.247-2.486 1.332-4.043 2.159-5.398.371-.551.545-.298.332.107m-.439-.501c-.646.906-2.738 3.009-3.177 5.528-.078.433-.455.669-.343.005.456-2.457 2.26-4.391 3.194-5.668.416-.523.574-.253.326.135m-.393-.562c-.765.81-3.262 3.486-4.049 5.92-.14.417-.545.602-.343-.044.793-2.373 2.98-4.926 4.088-6.056.49-.456.602-.163.304.18"/></svg>